<svg version="1.1" xmlns="http://www.w3.org/2000/svg" xmlns:xlink="http://www.w3.org/1999/xlink" width="501" height="369" viewBox="0,0,501,369"><g transform="translate(9.5,2)"><g data-paper-data="{&quot;isPaintingLayer&quot;:true}" fill-rule="nonzero" stroke="none" stroke-linecap="butt" stroke-linejoin="miter" stroke-miterlimit="10" stroke-dasharray="" stroke-dashoffset="0" style="mix-blend-mode: normal"><path d="M-8.5,15v-17h500v17z" fill="#808080" stroke-width="0"/><path d="M470.5,367v-369h19v369z" fill="#808080" stroke-width="0"/><path d="M-7.5,364v-364h19v364z" fill="#808080" stroke-width="0"/><path d="M-9.5,364v-18h501v18z" fill="#808080" stroke-width="0"/><path d="M272.5,157v-149h36v149z" fill="#808080" stroke-width="0"/><path d="M103.5,351v-95h15.73959v95z" fill="#808080" stroke-width="0"/><path d="M380.5,225v-12h91v12z" fill="#808080" stroke-width="0"/><path d="M374.5,223v-55h14v55z" fill="#808080" stroke-width="0"/><path d="M374.5,174v-13h60v13z" fill="#808080" stroke-width="0"/><path d="M418.5,170v-70h16v70z" fill="#808080" stroke-width="0"/><path d="M331.5,179v-84h19v84z" fill="#808080" stroke-width="0"/><path d="M340.5,67v-18h85v18z" fill="#808080" stroke-width="0"/><path d="M307.5,349v-62h22v62z" fill="#808080" stroke-width="0"/><path d="M405.5,349v-77h31v77z" fill="#808080" stroke-width="0"/><path d="M454.5,296v-15h22v15z" fill="#808080" stroke-width="0"/><path d="M400.5,250v-30h41v30z" fill="#808080" stroke-width="0"/><path d="M129.5,185v-176h17v176z" fill="#808080" stroke-width="0"/><path d="M223.5,92v-24h66v24z" fill="#808080" stroke-width="0"/><path d="M138.5,90v-21h57v21z" fill="#808080" stroke-width="0"/><path d="M188.5,36v-30h43v30z" fill="#808080" stroke-width="0"/><path d="M178.5,348v-121h29v121z" fill="#808080" stroke-width="0"/><path d="M6.5,196v-78h64v78z" fill="#808080" stroke-width="0"/><path d="M5.5,289v-19h75v19z" fill="#808080" stroke-width="0"/><path d="M53.5,91v-82h24v82z" fill="#808080" stroke-width="0"/><path d="M169.5,164v-22h75v22z" fill="#808080" stroke-width="0"/><path d="M240.32259,235.68064l12.55116,-42.17189l96.80366,28.81061l-12.55116,42.17189z" fill="#808080" stroke-width="0"/><path d="M226,332.8c0,-1.38071 1.11929,-2.5 2.5,-2.5c1.38071,0 2.5,1.11929 2.5,2.5c0,1.38071 -1.11929,2.5 -2.5,2.5c-1.38071,0 -2.5,-1.11929 -2.5,-2.5z" fill="#7f7f7f" stroke-width="0.5"/><path d="M283,320.8c0,-1.38071 1.11929,-2.5 2.5,-2.5c1.38071,0 2.5,1.11929 2.5,2.5c0,1.38071 -1.11929,2.5 -2.5,2.5c-1.38071,0 -2.5,-1.11929 -2.5,-2.5z" fill="#7f7f7f" stroke-width="0.5"/><path d="M228,292.8c0,-1.38071 1.11929,-2.5 2.5,-2.5c1.38071,0 2.5,1.11929 2.5,2.5c0,1.38071 -1.11929,2.5 -2.5,2.5c-1.38071,0 -2.5,-1.11929 -2.5,-2.5z" fill="#7f7f7f" stroke-width="0.5"/><path d="M254,312.8c0,-1.38071 1.11929,-2.5 2.5,-2.5c1.38071,0 2.5,1.11929 2.5,2.5c0,1.38071 -1.11929,2.5 -2.5,2.5c-1.38071,0 -2.5,-1.11929 -2.5,-2.5z" fill="#7f7f7f" stroke-width="0.5"/><path d="M284,297.8c0,-1.38071 1.11929,-2.5 2.5,-2.5c1.38071,0 2.5,1.11929 2.5,2.5c0,1.38071 -1.11929,2.5 -2.5,2.5c-1.38071,0 -2.5,-1.11929 -2.5,-2.5z" fill="#7f7f7f" stroke-width="0.5"/><path d="M232,269.8c0,-1.38071 1.11929,-2.5 2.5,-2.5c1.38071,0 2.5,1.11929 2.5,2.5c0,1.38071 -1.11929,2.5 -2.5,2.5c-1.38071,0 -2.5,-1.11929 -2.5,-2.5z" fill="#7f7f7f" stroke-width="0.5"/><path d="M264,288.8c0,-1.38071 1.11929,-2.5 2.5,-2.5c1.38071,0 2.5,1.11929 2.5,2.5c0,1.38071 -1.11929,2.5 -2.5,2.5c-1.38071,0 -2.5,-1.11929 -2.5,-2.5z" fill="#7f7f7f" stroke-width="0.5"/><path d="M256,336.8c0,-1.38071 1.11929,-2.5 2.5,-2.5c1.38071,0 2.5,1.11929 2.5,2.5c0,1.38071 -1.11929,2.5 -2.5,2.5c-1.38071,0 -2.5,-1.11929 -2.5,-2.5z" fill="#7f7f7f" stroke-width="0.5"/><path d="M298,340.8c0,-1.38071 1.11929,-2.5 2.5,-2.5c1.38071,0 2.5,1.11929 2.5,2.5c0,1.38071 -1.11929,2.5 -2.5,2.5c-1.38071,0 -2.5,-1.11929 -2.5,-2.5z" fill="#7f7f7f" stroke-width="0.5"/></g></g></svg>