<svg version="1.1" xmlns="http://www.w3.org/2000/svg" xmlns:xlink="http://www.w3.org/1999/xlink" width="242.47212" height="200" viewBox="0,0,242.47212,200"><defs><radialGradient cx="237.76952" cy="192.32342" r="48.2342" gradientUnits="userSpaceOnUse" id="color-1"><stop offset="0" stop-color="#d79bff"/><stop offset="1" stop-color="#d79bff" stop-opacity="0"/></radialGradient><radialGradient cx="97.52788" cy="249.47956" r="0.0025" gradientUnits="userSpaceOnUse" id="color-2"><stop offset="0" stop-color="#ffffff"/><stop offset="1" stop-color="#ffffff" stop-opacity="0"/></radialGradient></defs><g transform="translate(-97.52788,-80)"><g data-paper-data="{&quot;isPaintingLayer&quot;:true}" fill-rule="nonzero" stroke-linecap="butt" stroke-linejoin="miter" stroke-miterlimit="10" stroke-dasharray="" stroke-dashoffset="0" style="mix-blend-mode: normal"><path d="M189.53532,192.32342c0,-26.63901 21.59519,-48.2342 48.2342,-48.2342c26.63902,0 48.2342,21.59518 48.2342,48.2342c0,26.63902 -21.59518,48.23421 -48.2342,48.23421c-26.63901,0 -48.2342,-21.59519 -48.2342,-48.2342z" fill="url(#color-1)" stroke="none" stroke-width="0"/><path d="M140,280v-200h200v200z" fill="none" stroke="#000000" stroke-width="0"/><g stroke="none" stroke-width="1"><g><path d="M226.17734,223.65195c0,0 -1.62443,-48.24559 0.32488,-54.90574c0,0 6.98505,-11.371 18.03118,-15.75697c0,0 7.79727,11.04612 11.04612,20.7927c0,0 -14.94476,47.75826 -17.21896,51.00712c0,0 -5.03573,2.76154 -8.2846,3.08642c0.16244,0.16244 -3.89864,-1.78687 -3.89864,-4.22352z" fill="#8644b3"/><path d="M244.5334,153.31412l-8.77193,26.96555c-5.52306,-3.08642 -9.09681,-11.37101 -9.09681,-11.37101c0,0 6.98504,-11.37101 17.86873,-15.59453z" fill="#ea8be5"/><path d="M244.5334,153.31412l-8.77193,26.96555c-5.52306,-3.08642 -9.09681,-11.37101 -9.09681,-11.37101c0,0 6.98504,-11.37101 17.86873,-15.59453z" fill="#ea8be5"/><path d="M255.25464,175.24393c-10.23391,3.08642 -19.65561,5.03574 -19.65561,5.03574l8.93437,-26.96555c0,-0.16244 0.16244,-0.16244 0.16244,-0.16244c0,0 7.79727,11.04613 10.88368,20.79271c0,0 0,0.32488 -0.32488,1.29954z" fill="#ad59c2"/><path d="M235.76148,180.4421l-5.52307,47.75825c0,0 -3.89863,-2.11176 -3.89863,-4.38596c0,0 -1.62443,-48.24559 0.32489,-54.90574z" fill="#ad59c2"/><path d="M235.59903,180.27966c0,0 -0.16244,2.59909 -0.48732,6.49772c-0.16244,1.94932 -0.48733,4.22352 -0.64978,6.66016c-0.32488,2.43665 -0.48732,5.03573 -0.81221,7.47238c-0.32488,2.5991 -0.64978,5.19818 -0.97466,7.47238c-0.32488,2.43665 -0.64977,4.71085 -0.81221,6.49772c-0.64977,3.73619 -0.97466,6.33528 -0.97466,6.33528c0,0 0.16244,-2.59909 0.48733,-6.49771c0.16244,-1.94932 0.48733,-4.22352 0.64977,-6.66017c0.32488,-2.43665 0.48733,-5.03573 0.81221,-7.47238c0.32488,-2.5991 0.64977,-5.19818 0.97466,-7.47239c0.32488,-2.43665 0.64977,-4.71085 0.81221,-6.49772c0.64977,-3.89864 0.97466,-6.33527 0.97466,-6.33527z" fill="#ea8be5"/><path d="M230.72574,222.6773l-0.64977,5.36062c0,0 -3.89864,-2.11176 -3.89864,-4.38596c0,0 2.59909,-0.48733 4.54841,-0.97466z" fill="#a546bd"/><path d="M238.36057,224.9515c0,0 -5.19817,2.76154 -8.28459,3.08642l0.64977,-5.36062c0.97466,-0.16244 1.78687,-0.32488 2.11175,-0.32488c1.29954,-0.16244 5.52307,2.59909 5.52307,2.59909z" fill="#7c36ab"/><path d="M230.23841,228.03792c1.46198,-0.32488 2.92398,-0.81221 4.22352,-1.29954c1.29954,-0.48733 2.5991,-1.1371 3.7362,-2.11176l-0.16244,0.16245c0.97466,-3.24886 2.11175,-6.49772 3.24886,-9.74659c1.1371,-3.24886 2.11175,-6.49771 3.24886,-9.58414c2.2742,-6.49772 4.5484,-12.833 6.98504,-19.16828c-1.94932,6.49772 -4.06107,12.99544 -6.33527,19.49316c-1.1371,3.24886 -2.2742,6.49772 -3.24886,9.58414c-1.1371,3.24886 -2.27419,6.49772 -3.4113,9.58414c-1.29954,0.81222 -2.5991,1.46198 -4.06108,1.94931c-1.46198,0.64977 -2.76154,0.97466 -4.22352,1.1371z" fill="#6b348f"/><path d="M226.50222,168.90865c0,0 7.47239,-0.64977 12.99545,-0.64977l-3.89864,12.02078c-5.36062,-3.24886 -9.09681,-11.37101 -9.09681,-11.37101z" fill="#e17de3"/><path d="M245.02073,168.74621c1.46198,0.48733 6.8226,2.92398 10.39635,4.71085c0,0.16244 0.16244,0.48732 0.16244,0.64977c0,0 -0.16244,0.32488 -0.32488,1.1371c-10.23391,3.08642 -19.65561,5.03574 -19.65561,5.03574l3.89864,-12.02078c2.5991,0 4.87329,0 5.52306,0.48732z" fill="#9b4dae"/><path d="M255.25464,175.08148c0,0 -0.97466,0.48733 -2.2742,0.97466c-1.46198,0.48733 -3.24886,1.1371 -5.19817,1.78687c-1.94932,0.48733 -3.89863,0.97466 -5.36062,1.29954c-1.46198,0.32488 -2.43665,0.32488 -2.43665,0.32488c0,0 0.16244,0 0.64977,-0.16244c0.48733,-0.16244 0.97466,-0.32488 1.78687,-0.48733c1.46198,-0.48733 3.24886,-0.97466 5.19817,-1.62443c1.94932,-0.48733 3.89864,-1.1371 5.36062,-1.46198c1.29954,-0.48733 2.2742,-0.64978 2.2742,-0.64978z" fill="#6b348f"/></g><path d="M244.45979,153.39533c0,0 -0.32489,1.29955 -0.81222,3.24887c-0.48733,1.94932 -1.29954,4.5484 -2.11175,7.14749c-0.81222,2.5991 -1.78687,5.19817 -2.59909,7.14749c-0.81222,1.94932 -1.29954,3.24886 -1.29954,3.24886c0,0 0.32489,-1.29954 0.81222,-3.24886c0.48733,-2.11175 1.29954,-4.87329 2.11175,-7.30994c0.81222,-2.5991 1.78688,-5.19817 2.5991,-7.14749c0.64977,-1.94932 1.29954,-3.08642 1.29954,-3.08642z" fill="#ffbcfc"/></g><ellipse cx="195.05576" cy="498.95911" transform="scale(0.5,0.5)" rx="0" ry="0" fill="url(#color-2)" stroke="none" stroke-width="0"/></g></g></svg>