<svg version="1.1" xmlns="http://www.w3.org/2000/svg" xmlns:xlink="http://www.w3.org/1999/xlink" width="503" height="369" viewBox="0,0,503,369"><g transform="translate(10.5,2)"><g data-paper-data="{&quot;isPaintingLayer&quot;:true}" fill-rule="nonzero" stroke="none" stroke-linecap="butt" stroke-linejoin="miter" stroke-miterlimit="10" stroke-dasharray="" stroke-dashoffset="0" style="mix-blend-mode: normal"><path d="M-9.5,15v-17h500v17z" fill="#808080" stroke-width="0"/><path d="M469.5,367v-369h19v369z" fill="#808080" stroke-width="0"/><path d="M-8.5,364v-364h19v364z" fill="#808080" stroke-width="0"/><path d="M-10.5,364v-18h501v18z" fill="#808080" stroke-width="0"/><path d="M271.5,157v-149h36v149z" fill="#808080" stroke-width="0"/><path d="M102.5,351v-95h15.73959v95z" fill="#808080" stroke-width="0"/><path d="M379.5,225v-12h91v12z" fill="#808080" stroke-width="0"/><path d="M373.5,223v-55h14v55z" fill="#808080" stroke-width="0"/><path d="M373.5,174v-13h60v13z" fill="#808080" stroke-width="0"/><path d="M417.5,170v-70h16v70z" fill="#808080" stroke-width="0"/><path d="M330.5,179v-84h19v84z" fill="#808080" stroke-width="0"/><path d="M339.5,67v-18h85v18z" fill="#808080" stroke-width="0"/><path d="M306.5,349v-62h22v62z" fill="#808080" stroke-width="0"/><path d="M404.5,349v-77h31v77z" fill="#808080" stroke-width="0"/><path d="M453.5,296v-15h22v15z" fill="#808080" stroke-width="0"/><path d="M399.5,250v-30h41v30z" fill="#808080" stroke-width="0"/><path d="M128.5,185v-176h17v176z" fill="#808080" stroke-width="0"/><path d="M222.5,92v-24h66v24z" fill="#808080" stroke-width="0"/><path d="M137.5,90v-21h57v21z" fill="#808080" stroke-width="0"/><path d="M187.5,36v-30h43v30z" fill="#808080" stroke-width="0"/><path d="M177.5,348v-121h29v121z" fill="#808080" stroke-width="0"/><path d="M5.5,196v-78h64v78z" fill="#808080" stroke-width="0"/><path d="M4.5,289v-19h75v19z" fill="#808080" stroke-width="0"/><path d="M52.5,91v-82h24v82z" fill="#808080" stroke-width="0"/><path d="M168.5,164v-22h75v22z" fill="#808080" stroke-width="0"/><path d="M225,332.8c0,-1.38071 1.11929,-2.5 2.5,-2.5c1.38071,0 2.5,1.11929 2.5,2.5c0,1.38071 -1.11929,2.5 -2.5,2.5c-1.38071,0 -2.5,-1.11929 -2.5,-2.5z" fill="#7f7f7f" stroke-width="0.5"/><path d="M282,320.8c0,-1.38071 1.11929,-2.5 2.5,-2.5c1.38071,0 2.5,1.11929 2.5,2.5c0,1.38071 -1.11929,2.5 -2.5,2.5c-1.38071,0 -2.5,-1.11929 -2.5,-2.5z" fill="#7f7f7f" stroke-width="0.5"/><path d="M227,292.8c0,-1.38071 1.11929,-2.5 2.5,-2.5c1.38071,0 2.5,1.11929 2.5,2.5c0,1.38071 -1.11929,2.5 -2.5,2.5c-1.38071,0 -2.5,-1.11929 -2.5,-2.5z" fill="#7f7f7f" stroke-width="0.5"/><path d="M253,312.8c0,-1.38071 1.11929,-2.5 2.5,-2.5c1.38071,0 2.5,1.11929 2.5,2.5c0,1.38071 -1.11929,2.5 -2.5,2.5c-1.38071,0 -2.5,-1.11929 -2.5,-2.5z" fill="#7f7f7f" stroke-width="0.5"/><path d="M283,297.8c0,-1.38071 1.11929,-2.5 2.5,-2.5c1.38071,0 2.5,1.11929 2.5,2.5c0,1.38071 -1.11929,2.5 -2.5,2.5c-1.38071,0 -2.5,-1.11929 -2.5,-2.5z" fill="#7f7f7f" stroke-width="0.5"/><path d="M231,269.8c0,-1.38071 1.11929,-2.5 2.5,-2.5c1.38071,0 2.5,1.11929 2.5,2.5c0,1.38071 -1.11929,2.5 -2.5,2.5c-1.38071,0 -2.5,-1.11929 -2.5,-2.5z" fill="#7f7f7f" stroke-width="0.5"/><path d="M263,288.8c0,-1.38071 1.11929,-2.5 2.5,-2.5c1.38071,0 2.5,1.11929 2.5,2.5c0,1.38071 -1.11929,2.5 -2.5,2.5c-1.38071,0 -2.5,-1.11929 -2.5,-2.5z" fill="#7f7f7f" stroke-width="0.5"/><path d="M255,336.8c0,-1.38071 1.11929,-2.5 2.5,-2.5c1.38071,0 2.5,1.11929 2.5,2.5c0,1.38071 -1.11929,2.5 -2.5,2.5c-1.38071,0 -2.5,-1.11929 -2.5,-2.5z" fill="#7f7f7f" stroke-width="0.5"/><path d="M297,340.8c0,-1.38071 1.11929,-2.5 2.5,-2.5c1.38071,0 2.5,1.11929 2.5,2.5c0,1.38071 -1.11929,2.5 -2.5,2.5c-1.38071,0 -2.5,-1.11929 -2.5,-2.5z" fill="#7f7f7f" stroke-width="0.5"/><path d="M-7.5,15v-17h500v17z" fill="#808080" stroke-width="0"/><path d="M471.5,367v-369h19v369z" fill="#808080" stroke-width="0"/><path d="M-6.5,364v-364h19v364z" fill="#808080" stroke-width="0"/><path d="M-8.5,364v-18h501v18z" fill="#808080" stroke-width="0"/><path d="M273.5,157v-149h36v149z" fill="#808080" stroke-width="0"/><path d="M104.5,351v-95h15.73959v95z" fill="#808080" stroke-width="0"/><path d="M381.5,225v-12h91v12z" fill="#808080" stroke-width="0"/><path d="M375.5,223v-55h14v55z" fill="#808080" stroke-width="0"/><path d="M375.5,174v-13h60v13z" fill="#808080" stroke-width="0"/><path d="M419.5,170v-70h16v70z" fill="#808080" stroke-width="0"/><path d="M332.5,179v-84h19v84z" fill="#808080" stroke-width="0"/><path d="M341.5,67v-18h85v18z" fill="#808080" stroke-width="0"/><path d="M308.5,349v-62h22v62z" fill="#808080" stroke-width="0"/><path d="M406.5,349v-77h31v77z" fill="#808080" stroke-width="0"/><path d="M455.5,296v-15h22v15z" fill="#808080" stroke-width="0"/><path d="M401.5,250v-30h41v30z" fill="#808080" stroke-width="0"/><path d="M130.5,185v-176h17v176z" fill="#808080" stroke-width="0"/><path d="M224.5,92v-24h66v24z" fill="#808080" stroke-width="0"/><path d="M139.5,90v-21h57v21z" fill="#808080" stroke-width="0"/><path d="M189.5,36v-30h43v30z" fill="#808080" stroke-width="0"/><path d="M179.5,348v-121h29v121z" fill="#808080" stroke-width="0"/><path d="M7.5,196v-78h64v78z" fill="#808080" stroke-width="0"/><path d="M6.5,289v-19h75v19z" fill="#808080" stroke-width="0"/><path d="M54.5,91v-82h24v82z" fill="#808080" stroke-width="0"/><path d="M170.5,164v-22h75v22z" fill="#808080" stroke-width="0"/><path d="M227,332.8c0,-1.38071 1.11929,-2.5 2.5,-2.5c1.38071,0 2.5,1.11929 2.5,2.5c0,1.38071 -1.11929,2.5 -2.5,2.5c-1.38071,0 -2.5,-1.11929 -2.5,-2.5z" fill="#7f7f7f" stroke-width="0.5"/><path d="M284,320.8c0,-1.38071 1.11929,-2.5 2.5,-2.5c1.38071,0 2.5,1.11929 2.5,2.5c0,1.38071 -1.11929,2.5 -2.5,2.5c-1.38071,0 -2.5,-1.11929 -2.5,-2.5z" fill="#7f7f7f" stroke-width="0.5"/><path d="M229,292.8c0,-1.38071 1.11929,-2.5 2.5,-2.5c1.38071,0 2.5,1.11929 2.5,2.5c0,1.38071 -1.11929,2.5 -2.5,2.5c-1.38071,0 -2.5,-1.11929 -2.5,-2.5z" fill="#7f7f7f" stroke-width="0.5"/><path d="M255,312.8c0,-1.38071 1.11929,-2.5 2.5,-2.5c1.38071,0 2.5,1.11929 2.5,2.5c0,1.38071 -1.11929,2.5 -2.5,2.5c-1.38071,0 -2.5,-1.11929 -2.5,-2.5z" fill="#7f7f7f" stroke-width="0.5"/><path d="M285,297.8c0,-1.38071 1.11929,-2.5 2.5,-2.5c1.38071,0 2.5,1.11929 2.5,2.5c0,1.38071 -1.11929,2.5 -2.5,2.5c-1.38071,0 -2.5,-1.11929 -2.5,-2.5z" fill="#7f7f7f" stroke-width="0.5"/><path d="M233,269.8c0,-1.38071 1.11929,-2.5 2.5,-2.5c1.38071,0 2.5,1.11929 2.5,2.5c0,1.38071 -1.11929,2.5 -2.5,2.5c-1.38071,0 -2.5,-1.11929 -2.5,-2.5z" fill="#7f7f7f" stroke-width="0.5"/><path d="M265,288.8c0,-1.38071 1.11929,-2.5 2.5,-2.5c1.38071,0 2.5,1.11929 2.5,2.5c0,1.38071 -1.11929,2.5 -2.5,2.5c-1.38071,0 -2.5,-1.11929 -2.5,-2.5z" fill="#7f7f7f" stroke-width="0.5"/><path d="M257,336.8c0,-1.38071 1.11929,-2.5 2.5,-2.5c1.38071,0 2.5,1.11929 2.5,2.5c0,1.38071 -1.11929,2.5 -2.5,2.5c-1.38071,0 -2.5,-1.11929 -2.5,-2.5z" fill="#7f7f7f" stroke-width="0.5"/><path d="M299,340.8c0,-1.38071 1.11929,-2.5 2.5,-2.5c1.38071,0 2.5,1.11929 2.5,2.5c0,1.38071 -1.11929,2.5 -2.5,2.5c-1.38071,0 -2.5,-1.11929 -2.5,-2.5z" fill="#7f7f7f" stroke-width="0.5"/><path d="M233.5,246.80001v-43h119v43z" fill="#808080" stroke-width="0"/></g></g></svg>